<?xml version="1.0" encoding="utf-8"?>
<!-- Generator: Adobe Illustrator 26.0.3, SVG Export Plug-In . SVG Version: 6.00 Build 0)  -->
<svg version="1.1" id="Layer_1" xmlns="http://www.w3.org/2000/svg" xmlns:xlink="http://www.w3.org/1999/xlink" x="0px" y="0px"
	 viewBox="0 0 600 440" enable-background="new 0 0 600 440" xml:space="preserve">
<g id="Slogan" display="none">
	<path display="inline" fill="#F05F24" d="M215.804,418.196c0,0-3.711-0.876-5.516-3.711c-1.342,1.803-3.3,3.763-5.002,3.763h-2.784
		c0,0-7.734,0-6.394-7.681l2.013-11.344c0,0,1.34-7.631,9.073-7.631h10.468l-3.352,18.975c0,0-0.516,3.042,2.165,3.608
		L215.804,418.196z M210.288,410.568l2.629-14.954h-6.444c-3.66,0-4.279,3.61-4.279,3.61l-2.013,11.344
		c-0.669,3.66,2.992,3.66,2.992,3.66h2.784C209.617,414.228,210.288,410.568,210.288,410.568z"/>
	<path display="inline" fill="#F05F24" d="M242.711,414.176l-0.671,4.021c0,0-3.711-0.876-5.516-3.711
		c-1.392,1.803-3.3,3.763-5.002,3.763h-2.836c0,0-7.682,0-6.342-7.681l3.352-18.975h4.073l-3.352,18.975
		c-0.669,3.66,2.94,3.66,2.94,3.66h2.836c3.608,0,4.279-3.66,4.279-3.66l3.352-18.975h4.021l-3.353,18.975
		C240.493,410.568,239.98,413.61,242.711,414.176z"/>
	<path display="inline" fill="#F05F24" d="M256.212,395.614l-2.629,14.954c0,0-0.671,3.66,3.042,3.66h1.96l-0.671,4.021h-1.96
		c0,0-7.734,0-6.392-7.681l2.629-14.954h-2.784l0.103-0.669c2.734-3.094,5.157-5.931,7.889-9.023h0.516l-0.979,5.671h5.671
		l-0.721,4.021H256.212z"/>
	<path display="inline" fill="#F05F24" d="M284.822,399.224l-2.01,11.344c0,0-1.34,7.681-9.023,7.681h-2.834
		c0,0-7.683,0-6.342-7.681l2.01-11.344c0,0,1.34-7.631,9.023-7.631h2.834C278.48,391.593,286.164,391.593,284.822,399.224z
		 M280.749,399.224c0,0,0.618-3.61-2.99-3.61h-2.837c0,0-3.608,0-4.226,3.61l-2.013,11.344c0,0-0.669,3.66,2.939,3.66h2.837
		c0,0,3.608,0,4.279-3.66L280.749,399.224z"/>
	<path display="inline" fill="#F05F24" d="M325.954,399.224l-2.011,11.344c-1.337,7.681-9.073,7.681-9.073,7.681h-6.446
		l-2.011,11.292h-4.073l6.704-37.947h1.7l3.252,3.971c0,0,0.721-3.971,2.784-3.971h2.784
		C319.564,391.593,327.295,391.593,325.954,399.224z M321.88,399.224c0,0,0.621-3.61-3.042-3.61h-2.784c0,0-3.658,0-4.279,3.61
		l-2.679,15.004h6.442c0,0,3.663,0,4.331-3.66L321.88,399.224z"/>
	<path display="inline" fill="#F05F24" d="M350.542,418.196c0,0-3.715-0.876-5.52-3.711c-1.337,1.803-3.3,3.763-5,3.763h-2.784
		c0,0-7.731,0-6.394-7.681l2.01-11.344c0,0,1.342-7.631,9.078-7.631h10.463l-3.348,18.975c0,0-0.516,3.042,2.163,3.608
		L350.542,418.196z M345.022,410.568l2.631-14.954h-6.446c-3.658,0-4.279,3.61-4.279,3.61l-2.01,11.344
		c-0.669,3.66,2.99,3.66,2.99,3.66h2.784C344.354,414.228,345.022,410.568,345.022,410.568z"/>
	<path display="inline" fill="#F05F24" d="M363.68,399.224l-2.01,11.344c0,0-0.516,3.042,2.168,3.608l-0.673,4.021
		c0,0-6.7-1.287-5.568-7.629l3.352-18.975h1.648l3.352,3.971c0,0,0.721-3.971,2.683-3.971h4.847l-0.725,4.021h-4.842
		C367.911,395.614,364.301,395.614,363.68,399.224z"/>
	<path display="inline" fill="#F05F24" d="M382.338,395.614l-2.627,14.954c0,0-0.673,3.66,3.042,3.66h1.958l-0.673,4.021h-1.958
		c0,0-7.732,0-6.394-7.681l2.631-14.954h-2.784l0.105-0.669c2.732-3.094,5.153-5.931,7.884-9.023h0.516l-0.979,5.671h5.673
		l-0.721,4.021H382.338z"/>
	<path display="inline" fill="#F05F24" d="M390.533,414.228h8.767c0,0,3.658,0,4.327-3.66c0.363-2.115-1.853-2.786-4.585-3.61
		c-3.663-1.082-8.51-2.476-7.53-8.25c1.289-7.115,9.025-7.115,9.025-7.115h8.763l-0.721,4.021h-8.763c0,0-3.663,0-4.283,3.61
		c-0.358,2.063,1.858,2.837,4.589,3.66c3.663,1.134,8.457,2.579,7.478,8.25c-1.237,7.115-8.973,7.115-8.973,7.115h-8.763
		L390.533,414.228z"/>
	<path display="inline" fill="#F05F24" d="M443.059,406.958l0.773-4.279h-3.61c-1.132,0-6.6,0.361-7.579,5.774
		c-0.926,5.363,4.436,5.776,5.463,5.776h10.52l-0.669,4.021h-10.52c-4.226,0-10.105-2.578-8.815-9.796
		c0.568-3.35,2.679-5.876,5.31-7.784c-1.958-1.908-3.147-4.436-2.579-7.786c1.289-7.168,8.042-9.797,12.273-9.797h7.679
		l-0.721,4.021h-7.631c-1.132,0.052-6.6,0.363-7.578,5.776c-0.927,5.362,4.436,5.773,5.568,5.773h3.61l0.721-4.279h4.021
		l-0.721,4.279h5.673l-0.721,4.023h-5.673l-0.774,4.279H443.059z"/>
	<path display="inline" fill="#F05F24" d="M479.291,395.614l-2.627,14.954c0,0-0.673,3.66,3.042,3.66h1.958l-0.673,4.021h-1.958
		c0,0-7.732,0-6.395-7.681l2.631-14.954h-2.784l0.105-0.669c2.732-3.094,5.153-5.931,7.889-9.023h0.512l-0.979,5.671h5.673
		l-0.721,4.021H479.291z"/>
	<path display="inline" fill="#F05F24" d="M508.315,414.176l-0.669,4.021c0,0-3.715-0.876-5.52-3.711c-1.39,1.803-3.3,3.763-5,3.763
		h-2.837c0,0-7.679,0-6.342-7.681l3.353-18.975h4.073l-3.352,18.975c-0.669,3.66,2.941,3.66,2.941,3.66h2.832
		c3.61,0,4.284-3.66,4.284-3.66l3.348-18.975h4.025l-3.352,18.975C506.1,410.568,505.584,413.61,508.315,414.176z"/>
	<path display="inline" fill="#F05F24" d="M531.357,418.249h-4.074l3.3-18.972c0.669-3.663-2.994-3.663-2.994-3.663h-2.784
		c-3.658,0-4.331,3.663-4.331,3.663l-3.3,18.972h-4.073l4.694-26.656h1.7l3.251,4.021c0.721-4.021,2.784-4.021,2.784-4.021h2.784
		c0,0,7.731-0.103,6.39,7.528L531.357,418.249z"/>
	<path display="inline" fill="#F05F24" d="M545.885,418.196c0,0-6.648-1.287-5.516-7.629l3.353-18.975h4.073l-3.352,18.975
		c0,0-0.516,3.042,2.115,3.608L545.885,418.196z M549.084,384.323h-4.074l0.669-4.074h4.073L549.084,384.323z"/>
	<path display="inline" fill="#F05F24" d="M569.604,418.249h-4.074l3.3-18.972c0.669-3.663-2.994-3.663-2.994-3.663h-2.784
		c-3.658,0-4.331,3.663-4.331,3.663l-3.3,18.972h-4.069l4.69-26.656h1.7l3.251,4.021c0.721-4.021,2.784-4.021,2.784-4.021h2.784
		c0,0,7.731-0.103,6.39,7.528L569.604,418.249z"/>
	<path display="inline" fill="#F05F24" d="M599.652,391.593l-5.362,30.316c-1.337,7.631-9.021,7.631-9.021,7.631h-8.816l0.721-4.021
		h8.815c3.61,0,4.231-3.61,4.231-3.61l0.669-3.66h-6.446c0,0-7.679,0-6.342-7.681l2.01-11.344c1.342-7.631,9.025-7.631,9.025-7.631
		h2.837c2.01,0,1.289,3.971,1.289,3.971c1.027-0.876,3.505-2.939,4.742-3.971H599.652z M594.241,399.224
		c0.616-3.61-2.994-3.61-2.994-3.61h-2.832c-3.61,0-4.231,3.61-4.231,3.61l-2.01,11.344c-0.669,3.66,2.941,3.66,2.941,3.66h6.442
		L594.241,399.224z"/>
</g>
<g id="Replace_With_Your_Brand_Name" display="none">
	<path display="inline" fill="#485F80" d="M123.403,277.925l-6.932,39.337c0,0-1.687,9.93,8.055,9.93l-3.372,19.667
		c0,0-29.598,0-24.539-29.598l12.176-68.744h9.928l8.241,9.74c0,0,1.687-9.74,11.427-9.74h19.67l-3.372,19.667h-19.67
		C135.016,268.185,125.276,268.185,123.403,277.925z"/>
	<path display="inline" fill="#485F80" d="M200.21,307.523h-19.668l-1.873,9.74c0,0-1.687,9.93,8.241,9.93h39.337l-3.372,19.667
		h-39.337c0,0-29.595,0-24.539-29.598l6.932-39.337c0,0,5.245-29.407,34.84-29.407h9.742c0,0,29.595,0,24.351,29.407
		C234.864,277.925,229.807,307.523,200.21,307.523z M203.582,287.855c0,0,9.927,0,11.615-9.93c1.873-9.74-8.055-9.74-8.055-9.74
		h-9.74c0,0-9.93,0-11.803,9.74l-1.685,9.93H203.582z"/>
	<path display="inline" fill="#485F80" d="M320.293,346.86c0,0-15.174,0-21.916-10.865c-3.936,5.245-10.115,10.865-17.421,10.865
		h-9.742c0,0-29.595,0-24.539-29.598l6.932-39.337c0,0,5.245-29.407,34.84-29.407h19.67l6.932-39.338h19.668l-19.108,108.082
		c0,0-1.682,9.93,8.055,9.93L320.293,346.86z M295.941,317.262l8.807-49.077h-19.67c-9.93,0-11.803,9.74-11.803,9.74l-6.929,39.337
		c-1.687,9.93,8.241,9.93,8.241,9.93h9.742C294.256,327.193,295.941,317.262,295.941,317.262z"/>
	<path display="inline" fill="#485F80" d="M363.951,346.672c0,0-24.353-4.683-20.231-27.722l19.292-110.145h14.611L358.33,318.95
		c0,0-1.687,11.051,8.055,13.112L363.951,346.672z"/>
	<path display="inline" fill="#485F80" d="M408.723,346.672c0,0-24.165-4.683-20.043-27.722l12.176-68.935h14.799l-12.176,68.935
		c0,0-1.875,11.051,7.679,13.112L408.723,346.672z M420.336,223.603h-14.799l2.434-14.799h14.799L420.336,223.603z"/>
	<path display="inline" fill="#485F80" d="M494.898,346.86h-14.799l11.988-68.935c2.435-13.3-10.865-13.3-10.865-13.3h-10.114
		c-13.299,0-15.738,13.3-15.738,13.3l-11.988,68.935h-14.799l17.05-96.845h6.18l11.8,14.611
		c2.623-14.611,10.118-14.611,10.118-14.611h10.114c0,0,28.098-0.374,23.229,27.349L494.898,346.86z"/>
	<path display="inline" fill="#485F80" d="M566.278,305.838h-23.417l-2.247,13.112c0,0-2.434,13.3,10.866,13.3h38.212l-2.434,14.611
		h-38.212c0,0-28.098,0-23.229-27.91l7.307-41.21c0,0,4.869-27.725,32.967-27.725h10.114c0,0,28.098,0,23.229,27.725
		C599.433,277.74,594.376,305.838,566.278,305.838z M568.9,291.039c0,0,13.3,0,15.734-13.3
		c2.246-13.114-11.053-13.114-11.053-13.114h-10.113c0,0-13.3,0-15.546,13.114l-2.439,13.3H568.9z"/>
</g>
<g display="none">
	<path display="inline" fill="#F05F24" d="M214.184,379.748h-4.783c-0.984,0-1.772,0.288-2.366,0.865
		c-0.594,0.576-0.89,1.373-0.89,2.391c0,0.407,0.062,0.814,0.188,1.221c0.125,0.407,0.242,0.696,0.351,0.865l0.152,0.306h6.512
		l-0.865,5.647h-5.8l-3.483,21.988c-0.443,2.744-1.593,4.929-3.449,6.557c-1.857,1.625-4.499,2.438-7.925,2.438l0.967-5.952
		c2.17,0,3.442-1.017,3.815-3.048l3.481-21.983h-3.664l0.865-5.647h3.663c-0.034,0-0.136-0.128-0.305-0.382
		c-0.17-0.255-0.34-0.669-0.509-1.246c-0.17-0.577-0.254-1.204-0.254-1.883c0-2.17,0.873-3.96,2.62-5.367
		c1.747-1.407,4.333-2.111,7.759-2.111h4.782L214.184,379.748z"/>
	<path display="inline" fill="#F05F24" d="M231.685,391.348H226.8c-1.086,0-1.976,0.314-2.671,0.941
		c-0.695,0.628-1.111,1.399-1.247,2.314c-0.814,5.224-1.221,7.938-1.221,8.141c0,0.78,0.22,1.366,0.661,1.755
		c0.44,0.391,1.204,0.586,2.29,0.586l-0.967,5.952c-2.849,0-5.011-0.593-6.487-1.78c-1.475-1.188-2.213-2.815-2.213-4.885
		c0-0.475,0.949-6.8,2.849-18.977h3.358l3.765,4.731h0.051c0.068-0.407,0.169-0.797,0.306-1.17c0.135-0.373,0.389-0.873,0.763-1.501
		c0.373-0.628,0.941-1.128,1.705-1.501s1.67-0.56,2.722-0.56h2.137L231.685,391.348z"/>
	<path display="inline" fill="#F05F24" d="M246.693,384.938c2.646,0,4.749,0.695,6.309,2.086c1.56,1.391,2.34,3.205,2.34,5.443
		c0,0.441-0.476,3.681-1.425,9.718c-1.018,6.207-4.816,9.311-11.396,9.311c-2.646,0-4.74-0.695-6.283-2.086
		c-1.544-1.391-2.315-3.205-2.315-5.444c0-0.779,0.475-4.019,1.425-9.717c0.44-2.85,1.585-5.113,3.434-6.792
		C240.63,385.776,243.267,384.938,246.693,384.938z M245.828,390.585c-2.205,0-3.51,1.221-3.917,3.663
		c-0.916,5.63-1.374,8.615-1.374,8.954c0,1.764,0.949,2.646,2.849,2.646c2.238,0,3.561-1.221,3.968-3.663
		c0.916-5.63,1.374-8.615,1.374-8.954C248.728,391.467,247.761,390.585,245.828,390.585z"/>
	<path display="inline" fill="#F05F24" d="M287.19,384.938c3.765,0,5.647,2.12,5.647,6.359c0,1.052-0.967,7.632-2.9,19.74h-6.563
		c1.832-11.464,2.747-17.434,2.747-17.908c0-1.492-0.763-2.239-2.29-2.239c-1.832,0-2.917,1.018-3.256,3.053l-2.696,17.095h-6.563
		c1.832-11.464,2.748-17.434,2.748-17.908c0-1.492-0.763-2.239-2.29-2.239c-1.832,0-2.917,1.018-3.256,3.053l-2.667,17.095h-6.593
		l4.02-25.642h3.365l3.518,4.579h0.051c0.068-0.373,0.179-0.771,0.332-1.196c0.152-0.424,0.408-0.967,0.765-1.628
		s0.892-1.195,1.606-1.603s1.546-0.61,2.499-0.61c3.229,0,4.996,1.628,5.302,4.884C282.245,386.565,284.403,384.938,287.19,384.938z
		"/>
	<path display="inline" fill="#F05F24" d="M332.633,388.687l-12.311,16.703h9.616l-0.915,5.647H310.55l0.56-3.352l12.203-16.643
		h-9.616l0.915-5.647h18.531L332.633,388.687z"/>
	<path display="inline" fill="#F05F24" d="M346.511,400.2h-3.714c-0.237,1.459-0.356,2.392-0.356,2.799
		c0,1.594,0.967,2.391,2.9,2.391h9.311l-0.916,5.647h-9.311c-2.646,0-4.749-0.652-6.309-1.959c-1.561-1.305-2.34-3.01-2.34-5.113
		c0-0.779,0.509-4.223,1.526-10.327c0.475-2.612,1.695-4.715,3.663-6.31c1.967-1.594,4.51-2.391,7.631-2.391
		c2.781,0,4.885,0.619,6.309,1.856c1.425,1.239,2.138,2.893,2.138,4.961c0,2.646-0.883,4.715-2.646,6.207
		C352.633,399.455,350.004,400.2,346.511,400.2z M347.732,390.279c-2.205,0-3.494,1.119-3.867,3.358l-0.305,1.831h3.357
		c1.152,0,2.026-0.279,2.62-0.84c0.593-0.56,0.891-1.279,0.891-2.162C350.429,391.009,349.529,390.279,347.732,390.279z"/>
	<path display="inline" fill="#F05F24" d="M377.852,391.348h-4.885c-1.086,0-1.976,0.314-2.671,0.941
		c-0.695,0.628-1.111,1.399-1.246,2.314c-0.814,5.224-1.222,7.938-1.222,8.141c0,0.78,0.221,1.366,0.662,1.755
		c0.44,0.391,1.203,0.586,2.289,0.586l-0.967,5.952c-2.849,0-5.011-0.593-6.486-1.78s-2.214-2.815-2.214-4.885
		c0-0.475,0.949-6.8,2.85-18.977h3.357l3.766,4.731h0.051c0.067-0.407,0.169-0.797,0.305-1.17s0.39-0.873,0.764-1.501
		c0.373-0.628,0.941-1.128,1.704-1.501s1.67-0.56,2.722-0.56h2.137L377.852,391.348z"/>
	<path display="inline" fill="#F05F24" d="M392.859,384.938c2.646,0,4.748,0.695,6.309,2.086c1.56,1.391,2.341,3.205,2.341,5.443
		c0,0.441-0.476,3.681-1.425,9.718c-1.018,6.207-4.816,9.311-11.396,9.311c-2.646,0-4.74-0.695-6.283-2.086
		c-1.544-1.391-2.314-3.205-2.314-5.444c0-0.779,0.475-4.019,1.424-9.717c0.44-2.85,1.586-5.113,3.435-6.792
		C386.797,385.776,389.434,384.938,392.859,384.938z M391.995,390.585c-2.206,0-3.511,1.221-3.918,3.663
		c-0.916,5.63-1.374,8.615-1.374,8.954c0,1.764,0.949,2.646,2.85,2.646c2.238,0,3.562-1.221,3.968-3.663
		c0.916-5.63,1.374-8.615,1.374-8.954C394.895,391.467,393.928,390.585,391.995,390.585z"/>
	<path display="inline" fill="#F05F24" d="M436.992,391.043h-6.39c-1.192,7.527-1.784,11.428-1.775,11.699
		c0,0.781,0.221,1.367,0.662,1.757c0.44,0.391,1.203,0.586,2.289,0.586h3.053l-0.967,5.952h-3.053c-2.883,0-5.054-0.593-6.512-1.78
		c-1.459-1.188-2.188-2.815-2.188-4.885c0.015-0.777,0.673-5.221,1.975-13.329h-3.104l0.865-5.647h3.146l0.883-5.495h6.49
		l-0.87,5.495h6.359L436.992,391.043z"/>
	<path display="inline" fill="#F05F24" d="M453.096,384.938c2.646,0,4.748,0.695,6.309,2.086c1.56,1.391,2.341,3.205,2.341,5.443
		c0,0.441-0.476,3.681-1.425,9.718c-1.018,6.207-4.816,9.311-11.396,9.311c-2.646,0-4.74-0.695-6.283-2.086
		c-1.544-1.391-2.314-3.205-2.314-5.444c0-0.779,0.475-4.019,1.424-9.717c0.44-2.85,1.586-5.113,3.435-6.792
		C447.033,385.776,449.67,384.938,453.096,384.938z M452.231,390.585c-2.206,0-3.511,1.221-3.918,3.663
		c-0.916,5.63-1.374,8.615-1.374,8.954c0,1.764,0.949,2.646,2.85,2.646c2.238,0,3.562-1.221,3.968-3.663
		c0.916-5.63,1.374-8.615,1.374-8.954C455.131,391.467,454.164,390.585,452.231,390.585z"/>
	<path display="inline" fill="#F05F24" d="M498.862,405.085l-0.967,5.952h-17.582l0.967-5.952h5.494l3.332-21.169l-5.749,1.886
		l0.864-5.596l9.326-3.969h3.369l-4.549,28.848H498.862z"/>
	<path display="inline" fill="#F05F24" d="M519.233,375.779h1.679c2.646,0,4.731,0.713,6.258,2.137
		c1.526,1.425,2.289,3.308,2.289,5.647c0,0.95-0.915,7.005-2.747,18.163c-1.018,6.513-4.833,9.769-11.447,9.769h-1.679
		c-2.646,0-4.731-0.712-6.258-2.137s-2.29-3.308-2.29-5.647c0-0.949,0.916-7.004,2.748-18.163
		C508.804,379.035,512.619,375.779,519.233,375.779z M519.945,381.732h-1.679c-1.052,0-1.934,0.355-2.646,1.068
		c-0.713,0.712-1.153,1.628-1.323,2.747c-1.764,11.058-2.646,16.789-2.646,17.196c0,1.866,0.949,2.798,2.85,2.798h1.679
		c1.051,0,1.934-0.355,2.646-1.068c0.712-0.712,1.152-1.628,1.323-2.747c1.763-11.057,2.646-16.789,2.646-17.196
		C522.795,382.665,521.845,381.732,519.945,381.732z"/>
	<path display="inline" fill="#F05F24" d="M548.386,375.779h1.679c2.646,0,4.731,0.713,6.258,2.137
		c1.526,1.425,2.289,3.308,2.289,5.647c0,0.95-0.915,7.005-2.747,18.163c-1.018,6.513-4.833,9.769-11.447,9.769h-1.679
		c-2.646,0-4.731-0.712-6.258-2.137s-2.29-3.308-2.29-5.647c0-0.949,0.916-7.004,2.748-18.163
		C537.956,379.035,541.771,375.779,548.386,375.779z M549.098,381.732h-1.679c-1.052,0-1.934,0.355-2.646,1.068
		c-0.713,0.712-1.153,1.628-1.323,2.747c-1.764,11.058-2.646,16.789-2.646,17.196c0,1.866,0.949,2.798,2.85,2.798h1.679
		c1.051,0,1.934-0.355,2.646-1.068c0.712-0.712,1.152-1.628,1.323-2.747c1.763-11.057,2.646-16.789,2.646-17.196
		C551.947,382.665,550.997,381.732,549.098,381.732z"/>
</g>
<g>
	<g id="Symbol">
		<path fill-rule="evenodd" clip-rule="evenodd" fill="#F05F24" d="M204.015,41.997c5.514,0.424,10.957,1.095,16.322,1.993
			l-7.002,23.955l-7.281,24.912l-1.038-25.935L204.015,41.997L204.015,41.997z M282.93,9.203l-41.195,96.812l-42.2,99.157
			l67.742-83.81l66.313-82.036C318.144,27.262,301.138,17.111,282.93,9.203L282.93,9.203z M282.526,47.384
			c6.001,3.16,11.82,6.615,17.436,10.35l-27.214,35.496l-27.504,35.878l18.763-41.131L282.526,47.384L282.526,47.384z
			 M334.084,112.3c3.348,4.338,6.508,8.831,9.462,13.468l-22.543,10.85l-23.383,11.256l18.575-18.125L334.084,112.3z"/>
		<path fill-rule="evenodd" clip-rule="evenodd" fill="#485F80" d="M26.054,301.758c-2.367-4.936-4.51-9.997-6.431-15.165
			l24.333-5.935l25.214-6.149l-21.938,13.863L26.054,301.758L26.054,301.758z M8.354,228.251c-0.046-1.656-0.07-3.313-0.07-4.98
			c0-3.85,0.136-7.672,0.372-11.468l24.56,4.465l25.537,4.637l-25.682,3.743L8.354,228.251L8.354,228.251z M21.996,153.908
			c2.102-5.087,4.428-10.059,6.967-14.902l20.631,14.069l21.442,14.624l-24.984-7.026L21.996,153.908L21.996,153.908z
			 M64.751,91.579c3.967-3.776,8.108-7.371,12.404-10.78l13.103,21.208l13.639,22.082l-19.965-16.58L64.751,91.579L64.751,91.579z
			 M129.101,51.964c5.142-1.831,10.385-3.444,15.725-4.814l3.348,24.746l3.481,25.719l-11.497-23.267L129.101,51.964z"/>
	</g>
	<g>
		<path fill="#485F80" d="M149.466,207.658c10.578,0,18.973,2.818,25.182,8.451c6.209,5.636,9.313,13.052,9.313,22.25
			c0,2.876-0.172,5.233-0.517,7.071H160.16c0.229-1.38,0.345-2.471,0.345-3.276c0-8.854-4.772-13.281-14.315-13.281
			c-4.83,0-9.028,1.496-12.591,4.484c-3.565,2.991-5.751,7.015-6.554,12.073c-5.174,30.127-7.762,46.396-7.762,48.812
			c0,8.855,4.77,13.281,14.316,13.281c4.942,0,9.198-1.493,12.763-4.484c3.563-2.989,5.749-7.013,6.554-12.074h23.285
			c-1.841,11.5-6.67,20.671-14.488,27.511c-7.821,6.843-18.283,10.263-31.391,10.263c-10.464,0-18.83-2.816-25.095-8.452
			c-6.269-5.632-9.4-13.049-9.4-22.249c0-3.679,2.644-21.215,7.934-52.606c1.838-11.496,6.641-20.667,14.402-27.51
			C125.923,211.081,136.358,207.658,149.466,207.658z"/>
		<path fill="#485F80" d="M237.775,277.685h-47.432l3.105-19.146h47.259L237.775,277.685z"/>
		<path fill="#485F80" d="M325.242,305.971l-3.451,21.215h-69.702l18.856-117.975h23.228l-15.501,96.76H325.242z"/>
		<path fill="#485F80" d="M385.068,238.704c8.969,0,16.097,2.358,21.387,7.072c5.288,4.716,7.935,10.865,7.935,18.455
			c0,1.495-1.612,12.478-4.83,32.943c-3.449,21.042-16.328,31.563-38.635,31.563c-8.969,0-16.07-2.355-21.301-7.072
			c-5.233-4.713-7.848-10.866-7.848-18.455c0-2.644,1.608-13.626,4.829-32.943c1.493-9.658,5.374-17.334,11.643-23.025
			C364.514,241.55,373.453,238.704,385.068,238.704z M382.136,257.85c-7.476,0-11.9,4.14-13.28,12.418
			c-3.105,19.089-4.657,29.208-4.657,30.356c0,5.98,3.218,8.969,9.659,8.969c7.589,0,12.073-4.14,13.453-12.418
			c3.104-19.086,4.656-29.206,4.656-30.356C391.967,260.841,388.69,257.85,382.136,257.85z"/>
		<path fill="#485F80" d="M472.168,238.704c8.969,0,16.097,2.358,21.387,7.072c5.288,4.716,7.935,10.865,7.935,18.455
			c0,1.495-1.612,12.478-4.83,32.943c-3.449,21.042-16.328,31.563-38.635,31.563c-8.969,0-16.07-2.355-21.301-7.072
			c-5.233-4.713-7.848-10.866-7.848-18.455c0-2.644,1.608-13.626,4.829-32.943c1.493-9.658,5.374-17.334,11.643-23.025
			C451.613,241.55,460.553,238.704,472.168,238.704z M469.235,257.85c-7.476,0-11.9,4.14-13.28,12.418
			c-3.105,19.089-4.657,29.208-4.657,30.356c0,5.98,3.218,8.969,9.659,8.969c7.589,0,12.073-4.14,13.453-12.418
			c3.104-19.086,4.656-29.206,4.656-30.356C479.066,260.841,475.79,257.85,469.235,257.85z"/>
		<path fill="#485F80" d="M572.721,238.704c6.209,0,10.923,1.897,14.143,5.692c3.218,3.794,4.83,9.084,4.83,15.867
			c0,3.911-1.723,16.213-5.161,36.911c-1.493,9.2-5.336,16.501-11.529,21.904c-6.192,5.406-15.084,8.106-26.666,8.106h-11.185
			l-5.896,37.255h-22.353l19.657-124.184h11.387l12.763,15.522h0.173c0.229-1.264,0.631-2.613,1.207-4.053
			c0.574-1.437,1.523-3.277,2.847-5.52c1.32-2.242,3.363-4.053,6.122-5.433C565.818,239.395,569.039,238.704,572.721,238.704z
			 M564.277,297.175c3.099-18.628,4.648-28.516,4.648-29.667c0-5.748-3.277-8.623-9.831-8.623c-3.795,0-6.786,1.064-8.969,3.19
			c-2.186,2.129-3.509,4.859-3.967,8.192l-5.98,37.772h11.018C558.769,308.04,563.129,304.418,564.277,297.175z"/>
	</g>
	<g>
		<path fill="#F05F24" d="M87.591,380.543h-5.64c-1.161,0-2.091,0.341-2.79,1.021c-0.7,0.681-1.05,1.62-1.05,2.82
			c0,0.479,0.074,0.96,0.222,1.439c0.148,0.48,0.286,0.82,0.413,1.021l0.18,0.359h7.68l-1.02,6.66h-6.84l-4.107,25.932
			c-0.523,3.236-1.879,5.813-4.068,7.732c-2.19,1.917-5.305,2.876-9.346,2.876l1.14-7.02c2.56,0,4.06-1.198,4.5-3.595l4.105-25.926
			h-4.32l1.02-6.66h4.32c-0.041,0-0.161-0.149-0.36-0.45c-0.2-0.3-0.4-0.789-0.6-1.47c-0.201-0.68-0.3-1.419-0.3-2.22
			c0-2.56,1.029-4.67,3.09-6.33c2.06-1.659,5.109-2.49,9.15-2.49h5.64L87.591,380.543z"/>
		<path fill="#F05F24" d="M108.23,394.224h-5.76c-1.281,0-2.331,0.37-3.15,1.109c-0.82,0.741-1.311,1.65-1.47,2.73
			c-0.96,6.16-1.44,9.36-1.44,9.6c0,0.921,0.26,1.611,0.78,2.07c0.52,0.46,1.419,0.69,2.7,0.69l-1.14,7.02
			c-3.36,0-5.91-0.699-7.65-2.1c-1.74-1.4-2.61-3.32-2.61-5.761c0-0.56,1.119-8.019,3.36-22.38h3.96l4.44,5.58h0.06
			c0.08-0.479,0.2-0.939,0.36-1.38c0.16-0.439,0.459-1.029,0.9-1.77c0.439-0.74,1.11-1.33,2.01-1.771c0.9-0.439,1.97-0.66,3.21-0.66
			h2.52L108.23,394.224z"/>
		<path fill="#F05F24" d="M125.931,386.663c3.12,0,5.6,0.82,7.44,2.46c1.839,1.641,2.76,3.78,2.76,6.42
			c0,0.521-0.561,4.341-1.68,11.46c-1.2,7.32-5.681,10.98-13.44,10.98c-3.12,0-5.59-0.819-7.41-2.46
			c-1.821-1.64-2.73-3.78-2.73-6.42c0-0.92,0.56-4.74,1.68-11.46c0.52-3.36,1.87-6.03,4.05-8.01
			C118.78,387.653,121.89,386.663,125.931,386.663z M124.911,393.323c-2.601,0-4.14,1.44-4.62,4.32
			c-1.08,6.64-1.62,10.16-1.62,10.56c0,2.08,1.12,3.12,3.36,3.12c2.64,0,4.2-1.439,4.68-4.32c1.08-6.639,1.62-10.159,1.62-10.56
			C128.331,394.364,127.19,393.323,124.911,393.323z"/>
		<path fill="#F05F24" d="M173.69,386.663c4.44,0,6.66,2.501,6.66,7.5c0,1.24-1.14,9-3.42,23.28h-7.74
			c2.16-13.52,3.24-20.56,3.24-21.12c0-1.76-0.9-2.64-2.7-2.64c-2.16,0-3.441,1.2-3.84,3.6l-3.18,20.16h-7.74
			c2.16-13.52,3.24-20.56,3.24-21.12c0-1.76-0.9-2.64-2.7-2.64c-2.16,0-3.44,1.2-3.84,3.6l-3.145,20.16h-7.775l4.741-30.24h3.968
			l4.148,5.4h0.06c0.081-0.439,0.211-0.909,0.391-1.41c0.18-0.5,0.481-1.14,0.902-1.92s1.052-1.41,1.894-1.89
			c0.842-0.48,1.824-0.721,2.947-0.721c3.808,0,5.892,1.92,6.253,5.761C167.857,388.583,170.403,386.663,173.69,386.663z"/>
		<path fill="#F05F24" d="M225.408,393.863h-9.72c-2.44,0-3.66,0.9-3.66,2.7c0,0.681,0.43,1.229,1.29,1.649
			c0.859,0.421,1.899,0.78,3.12,1.08c1.22,0.301,2.439,0.681,3.66,1.141c1.22,0.46,2.259,1.25,3.12,2.37
			c0.859,1.12,1.29,2.54,1.29,4.26c0,3.36-1.121,5.931-3.36,7.71c-2.24,1.78-5.421,2.67-9.54,2.67h-9.54l1.021-6.66h9.54
			c2.438,0,3.659-0.899,3.659-2.7c0-0.68-0.4-1.229-1.199-1.649c-0.801-0.42-1.78-0.78-2.94-1.08s-2.32-0.68-3.48-1.141
			c-1.16-0.459-2.14-1.239-2.939-2.34c-0.801-1.1-1.2-2.489-1.2-4.17c0-3.399,1.06-6,3.18-7.8s5.12-2.7,9-2.7h9.721L225.408,393.863
			z"/>
		<path fill="#F05F24" d="M250.155,393.863h-7.534c-1.406,8.878-2.104,13.478-2.094,13.797c0,0.922,0.26,1.613,0.78,2.073
			c0.52,0.46,1.419,0.69,2.7,0.69h3.6l-1.14,7.02h-3.601c-3.4,0-5.96-0.699-7.68-2.1c-1.721-1.4-2.58-3.32-2.58-5.761
			c0.018-0.917,0.794-6.156,2.33-15.72h-3.66l1.02-6.66h3.71l1.041-6.479h7.654l-1.026,6.479h7.5L250.155,393.863z"/>
		<path fill="#F05F24" d="M265.787,386.663c1.199,0,2.199,0.24,3,0.721c0.8,0.479,1.319,1.04,1.56,1.68
			c0.24,0.641,0.41,1.3,0.51,1.979c0.1,0.681,0.069,1.2-0.09,1.561h0.061l6.18-5.4h3.96l-3.12,19.62c-0.2,1.12-0.08,2.001,0.36,2.64
			c0.439,0.641,1.459,0.961,3.06,0.961l-1.14,7.02c-5.32,0-8.561-1.56-9.72-4.68c-2.881,3.479-6.061,5.22-9.54,5.22
			c-4.44,0-6.66-2.499-6.66-7.5c0-1.2,0.579-5.479,1.74-12.84C257.146,390.323,260.426,386.663,265.787,386.663z M268.247,393.684
			c-2.601,0-4.12,1.319-4.561,3.96c-1.04,6.6-1.56,10.04-1.56,10.319c0,2.001,1.039,3,3.12,3c0.8,0,1.569-0.119,2.31-0.359
			s1.27-0.48,1.59-0.72l0.54-0.301c1.32-8.199,1.98-12.499,1.98-12.899C271.667,394.684,270.526,393.684,268.247,393.684z"/>
		<path fill="#F05F24" d="M306.706,394.224h-5.76c-1.28,0-2.331,0.37-3.15,1.109c-0.82,0.741-1.311,1.65-1.47,2.73
			c-0.96,6.16-1.44,9.36-1.44,9.6c0,0.921,0.26,1.611,0.78,2.07c0.52,0.46,1.42,0.69,2.7,0.69l-1.14,7.02
			c-3.36,0-5.91-0.699-7.65-2.1s-2.61-3.32-2.61-5.761c0-0.56,1.12-8.019,3.36-22.38h3.96l4.44,5.58h0.06
			c0.08-0.479,0.2-0.939,0.36-1.38c0.159-0.439,0.459-1.029,0.899-1.77s1.11-1.33,2.011-1.771c0.899-0.439,1.97-0.66,3.21-0.66h2.52
			L306.706,394.224z"/>
		<path fill="#F05F24" d="M328.694,393.863h-7.534c-1.406,8.878-2.104,13.478-2.094,13.797c0,0.922,0.26,1.613,0.78,2.073
			c0.52,0.46,1.419,0.69,2.7,0.69h3.6l-1.14,7.02h-3.601c-3.4,0-5.96-0.699-7.68-2.1c-1.721-1.4-2.58-3.32-2.58-5.761
			c0.018-0.917,0.794-6.156,2.33-15.72h-3.66l1.02-6.66h3.71l1.041-6.479h7.654l-1.026,6.479h7.5L328.694,393.863z"/>
		<path fill="#F05F24" d="M369.433,393.863h-7.534c-1.406,8.878-2.104,13.478-2.094,13.797c0,0.922,0.26,1.613,0.78,2.073
			c0.52,0.46,1.419,0.69,2.7,0.69h3.6l-1.14,7.02h-3.601c-3.4,0-5.96-0.699-7.68-2.1c-1.721-1.4-2.58-3.32-2.58-5.761
			c0.018-0.917,0.794-6.156,2.33-15.72h-3.66l1.02-6.66h3.71l1.041-6.479h7.654l-1.026,6.479h7.5L369.433,393.863z"/>
		<path fill="#F05F24" d="M388.424,386.663c3.12,0,5.6,0.82,7.44,2.46c1.839,1.641,2.76,3.78,2.76,6.42
			c0,0.521-0.561,4.341-1.68,11.46c-1.2,7.32-5.681,10.98-13.44,10.98c-3.12,0-5.59-0.819-7.41-2.46
			c-1.82-1.64-2.729-3.78-2.729-6.42c0-0.92,0.56-4.74,1.68-11.46c0.52-3.36,1.869-6.03,4.05-8.01
			C381.273,387.653,384.384,386.663,388.424,386.663z M387.404,393.323c-2.601,0-4.141,1.44-4.62,4.32
			c-1.08,6.64-1.62,10.16-1.62,10.56c0,2.08,1.119,3.12,3.36,3.12c2.64,0,4.2-1.439,4.68-4.32c1.08-6.639,1.62-10.159,1.62-10.56
			C390.824,394.364,389.685,393.323,387.404,393.323z"/>
		<path fill="#F05F24" d="M439.902,380.543h-2.4c-1.16,0-2.091,0.341-2.79,1.021c-0.7,0.681-1.05,1.62-1.05,2.82
			c0,0.479,0.063,0.96,0.191,1.439c0.127,0.48,0.275,0.82,0.444,1.021l0.18,0.359h11.94l-1.021,6.66h-11.16l-4.106,25.932
			c-0.523,3.236-1.89,5.813-4.099,7.732c-2.209,1.917-5.295,2.876-9.256,2.876l1.08-7.02c2.641,0,4.141-1.198,4.5-3.595
			l4.105-25.926h-4.32l1.021-6.66h4.32c-0.041,0-0.161-0.149-0.36-0.45c-0.201-0.3-0.4-0.789-0.601-1.47
			c-0.2-0.68-0.3-1.419-0.3-2.22c0-2.56,1.05-4.67,3.15-6.33c2.1-1.659,5.149-2.49,9.149-2.49h2.4L439.902,380.543z"/>
		<path fill="#F05F24" d="M445.996,387.203h7.546c-2.182,12.988-3.108,19.785-2.78,20.389c0,0.928,0.26,1.622,0.78,2.085
			c0.52,0.464,1.42,0.695,2.7,0.695l-1.14,7.071c-3.36,0-5.91-0.699-7.65-2.1c-1.74-1.401-2.61-3.322-2.61-5.764
			C442.829,408.821,443.881,401.361,445.996,387.203z M454.45,381.804h-7.648l1.021-6.841h7.775L454.45,381.804z"/>
		<path fill="#F05F24" d="M479.262,386.663c2.159,0,3.8,0.66,4.92,1.98c1.119,1.319,1.68,3.16,1.68,5.52c0,1.24-1.14,9-3.42,23.28
			h-7.74c2.16-13.52,3.24-20.439,3.24-20.76c0-2-1.14-3-3.42-3c-1.32,0-2.36,0.37-3.12,1.109c-0.761,0.741-1.221,1.69-1.38,2.851
			l-3.145,19.8h-7.775l4.798-30.24h3.961l4.44,5.4h0.06c0.08-0.439,0.22-0.909,0.42-1.41c0.2-0.5,0.53-1.14,0.99-1.92
			c0.459-0.78,1.17-1.41,2.13-1.89C476.86,386.903,477.98,386.663,479.262,386.663z"/>
		<path fill="#F05F24" d="M495.015,387.203h7.546c-2.182,12.988-3.108,19.785-2.78,20.389c0,0.928,0.26,1.622,0.78,2.085
			c0.52,0.464,1.42,0.695,2.7,0.695l-1.14,7.071c-3.36,0-5.91-0.699-7.65-2.1c-1.74-1.401-2.61-3.322-2.61-5.764
			C491.848,408.821,492.899,401.361,495.015,387.203z M503.469,381.804h-7.648l1.021-6.841h7.775L503.469,381.804z"/>
		<path fill="#F05F24" d="M530.681,393.863h-9.72c-2.44,0-3.66,0.9-3.66,2.7c0,0.681,0.43,1.229,1.29,1.649
			c0.859,0.421,1.899,0.78,3.12,1.08c1.22,0.301,2.439,0.681,3.66,1.141c1.22,0.46,2.259,1.25,3.12,2.37
			c0.859,1.12,1.29,2.54,1.29,4.26c0,3.36-1.121,5.931-3.36,7.71c-2.24,1.78-5.421,2.67-9.54,2.67h-9.54l1.021-6.66h9.54
			c2.438,0,3.659-0.899,3.659-2.7c0-0.68-0.4-1.229-1.199-1.649c-0.801-0.42-1.78-0.78-2.94-1.08s-2.32-0.68-3.48-1.141
			c-1.16-0.459-2.14-1.239-2.939-2.34c-0.801-1.1-1.2-2.489-1.2-4.17c0-3.399,1.06-6,3.18-7.8s5.12-2.7,9-2.7h9.721L530.681,393.863
			z"/>
		<path fill="#F05F24" d="M555.76,386.663c4.44,0,6.66,2.501,6.66,7.5c0,1.24-1.14,9-3.42,23.28h-7.74
			c2.16-13.52,3.24-20.439,3.24-20.76c0-2-1.041-3-3.12-3c-1.631,0-3.104,0.453-4.416,1.361l-3.528,22.398h-7.775l6.804-43.2h7.776
			l-2.529,16.06C550.193,387.877,552.876,386.663,555.76,386.663z"/>
		<path fill="#F05F24" d="M575.26,417.443h-8.28l1.141-7.2h8.279L575.26,417.443z M575.439,405.023H570.7l2.579-28.62h8.7
			L575.439,405.023z"/>
	</g>
</g>
</svg>
